<svg xmlns="http://www.w3.org/2000/svg" xmlns:xlink="http://www.w3.org/1999/xlink" version="1.1" x="0px" y="0px" width="100px" height="100px" viewBox="0 0 100 100" enable-background="new 0 0 100 100" xml:space="preserve">
<g id="Captions">
	<rect x="-192" width="185" height="99"/>
	<rect y="-36" width="100" height="30"/>
	<text transform="matrix(1 0 0 1 66 -19.5)" fill="#000000" font-family="'Helvetica'" font-size="2.4">http://thenounproject.com</text>
	<text transform="matrix(1 0 0 1 7.166 -24.5)"><tspan x="0" y="0" fill="#000000" font-family="'Helvetica-Bold'" font-size="6.1578">The Noun Project</tspan><tspan x="1.12" y="4.8" fill="#000000" font-family="'Helvetica-Bold'" font-size="4">Icon Template</tspan></text>
	<text transform="matrix(1 0 0 1 -178.5 10.5)" fill="#000000" font-family="'Helvetica-Bold'" font-size="6.1578">Reminders</text>
	<line fill="#000000" stroke="#FFFFFF" stroke-miterlimit="10" x1="8" y1="-14.5" x2="18" y2="-14.5"/>
	<line fill="#000000" stroke="#FFFFFF" stroke-miterlimit="10" x1="-179" y1="16.5" x2="-162" y2="16.5"/>
	<g>
		<g>
			<g>
				<rect x="-170.802" y="31.318" fill="#000000" width="8.721" height="8.642"/>
				<path fill="#000000" d="M-164.455,42.312h4.747v-4.703h-4.747V42.312z M-159.266,42.749h-5.63V37.17h5.63V42.749      L-159.266,42.749z M-166.221,44.062h8.279v-8.203h-8.279V44.062L-166.221,44.062z M-157.5,44.5h-9.163v-9.079h9.163V44.5      L-157.5,44.5z"/>
				<polygon fill="#000000" points="-166.149,44.133 -166.292,43.991 -158.013,35.787 -157.871,35.929     "/>
			</g>
		</g>
	</g>
	<rect x="-179" y="58" fill="none" width="35" height="32.5"/>
	<text transform="matrix(1 0 0 1 -179 60.1572)"><tspan x="0" y="0" fill="#000000" font-family="'Helvetica-Bold'" font-size="3">Strokes</tspan><tspan x="0" y="5" fill="#000000" font-family="'Helvetica'" font-size="2.4">Try to keep strokes at 4px</tspan><tspan x="0" y="10" fill="#000000" font-family="'Helvetica'" font-size="2.4">Minimum stroke weight is 2px</tspan><tspan x="0" y="14.5" fill="#000000" font-family="'Helvetica'" font-size="2.4">For thicker strokes use even </tspan><tspan x="0" y="17.5" fill="#000000" font-family="'Helvetica'" font-size="2.4">numbers: 6px, 8px etc.</tspan><tspan x="0" y="22" fill="#000000" font-family="'Helvetica-Bold'" font-size="2.4">Remember to expand strokes </tspan><tspan x="0" y="25" fill="#000000" font-family="'Helvetica-Bold'" font-size="2.4">before saving as an SVG </tspan></text>
	<rect x="-136.5" y="58" fill="none" width="35" height="32.5"/>
	<text transform="matrix(1 0 0 1 -136.5 60.1572)"><tspan x="0" y="0" fill="#000000" font-family="'Helvetica-Bold'" font-size="3">Size</tspan><tspan x="0" y="5" fill="#000000" font-family="'Helvetica'" font-size="2.4">Cannot be wider or taller than </tspan><tspan x="0" y="8.5" fill="#000000" font-family="'Helvetica'" font-size="2.4">100px (artboard size)</tspan><tspan x="0" y="13.5" fill="#000000" font-family="'Helvetica'" font-size="2.4">Scale your icon to fill as much of </tspan><tspan x="0" y="16.5" fill="#000000" font-family="'Helvetica'" font-size="2.4">the artboard as possible</tspan></text>
	<rect x="-94" y="58" fill="none" width="35" height="32.5"/>
	<text transform="matrix(1 0 0 1 -94 60.1572)"><tspan x="0" y="0" fill="#000000" font-family="'Helvetica-Bold'" font-size="3">Ungroup</tspan><tspan x="0" y="5" fill="#000000" font-family="'Helvetica'" font-size="2.4">If your design has more than one </tspan><tspan x="0" y="8" fill="#000000" font-family="'Helvetica'" font-size="2.4">shape, make sure to ungroup</tspan></text>
	<rect x="-50" y="58" fill="none" width="35" height="32.5"/>
	<text transform="matrix(1 0 0 1 -50 60.1572)"><tspan x="0" y="0" fill="#000000" font-family="'Helvetica-Bold'" font-size="3">Save as</tspan><tspan x="0" y="5" fill="#000000" font-family="'Helvetica'" font-size="2.4">Save as .SVG and make sure </tspan><tspan x="0" y="8" fill="#000000" font-family="'Helvetica'" font-size="2.4">&#8220;Use Artboards&#8221; is checked</tspan></text>
	<text transform="matrix(1.0074 0 0 1 -125.542 30.5933)" fill="#000000" font-family="'Helvetica'" font-size="2.5731">100px</text>
	<text transform="matrix(1.0074 0 0 1 -41 39)" fill="#000000" font-family="'Helvetica-Bold'" font-size="5.1462">.SVG</text>
	<rect x="-126.514" y="34.815" fill="#000000" width="10.261" height="10.185"/>
	<rect x="-126.477" y="31.766" fill="#000000" width="0.522" height="2.337"/>
	<rect x="-116.812" y="31.766" fill="#000000" width="0.523" height="2.337"/>
	<rect x="-127" y="32.337" fill="#000000" width="11.233" height="0.572"/>
	<g>
		<rect x="-83.805" y="33.844" fill="#000000" width="10.305" height="10.156"/>
		<rect x="-76.809" y="28.707" fill="#000000" width="3.308" height="3.261"/>
	</g>
	<rect x="-178.5" y="22.5" fill="#000000" stroke="#FFFFFF" stroke-miterlimit="10" width="30" height="30"/>
	<rect x="-136.5" y="22.5" fill="#000000" stroke="#FFFFFF" stroke-miterlimit="10" width="30" height="30"/>
	<rect x="-93.5" y="22.5" fill="#000000" stroke="#FFFFFF" stroke-miterlimit="10" width="30" height="30"/>
	<rect x="-49.5" y="22.5" fill="#000000" stroke="#FFFFFF" stroke-miterlimit="10" width="30" height="30"/>
</g>
<g id="Your_Icon">
	<path fill="#000000" d="M95.661,2H4.338C3.049,2,2,3.049,2,4.338V95.66C2,96.954,3.049,98,4.338,98h91.323   C96.954,98,98,96.954,98,95.66V4.338C98,3.049,96.954,2,95.661,2z M12.668,38.752c-0.921,0-1.668-0.748-1.668-1.67V21.935   c0-0.921,0.747-1.67,1.668-1.67h1.458v-5.011c0-1.164,0.943-2.107,2.106-2.107h68.828c1.16,0,2.104,0.943,2.104,2.107v68.825   c0,1.164-0.943,2.111-2.104,2.111H16.233c-1.163,0-2.106-0.947-2.106-2.111V73.497h-1.458c-0.921,0-1.668-0.748-1.668-1.668V56.681   c0-0.921,0.747-1.669,1.668-1.669h1.458v-16.26H12.668z"/>
	<path fill="#000000" d="M83.307,17.36H18.698v2.904h0.566c0.922,0,1.669,0.749,1.669,1.67v15.147c0,0.922-0.747,1.67-1.669,1.67   h-0.566v16.26h0.566c0.922,0,1.669,0.748,1.669,1.669v15.148c0,0.92-0.747,1.668-1.669,1.668h-0.566v8.478h64.609V17.36z    M52.006,75.001c-13.94,0-25.281-11.34-25.281-25.28c0-13.938,11.341-25.28,25.281-25.28c13.939,0,25.279,11.341,25.279,25.28   C77.285,63.661,65.945,75.001,52.006,75.001z"/>
	<polygon fill="#000000" points="17.593,35.411 17.593,23.606 16.591,23.606 14.698,23.606 14.698,35.411 16.591,35.411  "/>
	<polygon fill="#000000" points="17.593,70.16 17.593,58.354 16.591,58.354 14.698,58.354 14.698,70.16 16.591,70.16  "/>
	<path fill="#000000" d="M63.871,38.928c2.365,2.65,3.875,6.078,4.094,9.847h5.955c-0.229-5.403-2.426-10.305-5.885-14.013   L63.871,38.928z"/>
	<path fill="#000000" d="M39.904,38.689l-3.927-3.927c-3.461,3.707-5.657,8.609-5.886,14.013h5.499   C35.814,44.891,37.411,41.369,39.904,38.689z"/>
	<path fill="#000000" d="M62.693,37.741l4.158-4.155c-3.621-3.331-8.355-5.464-13.572-5.763l5.029,7.061   C59.928,35.597,61.406,36.565,62.693,37.741z"/>
	<path fill="#000000" d="M35.577,50.444h-5.492c0.176,5.436,2.338,10.376,5.784,14.122l3.926-3.93   C37.317,57.922,35.752,54.363,35.577,50.444z"/>
	<path fill="#000000" d="M45.242,34.885l5.004-7.027c-5.025,0.401-9.581,2.498-13.085,5.727l3.941,3.941   C42.333,36.448,43.726,35.554,45.242,34.885z"/>
	<path fill="#000000" d="M37.047,65.752c3.731,3.485,8.678,5.682,14.123,5.89v-5.717c-3.902-0.145-7.456-1.671-10.185-4.11   L37.047,65.752z"/>
	<path fill="#000000" d="M63.975,60.395l4.168,4.172c3.443-3.746,5.605-8.687,5.781-14.122h-5.945   C67.811,54.247,66.324,57.71,63.975,60.395z"/>
	<path fill="#000000" d="M52.842,65.898v5.743c5.445-0.208,10.389-2.404,14.123-5.89l-4.156-4.159   C60.154,64.061,56.68,65.652,52.842,65.898z"/>
	<path fill="#000000" d="M51.17,33.52c0.201-0.008,0.404-0.017,0.607-0.017c0.357,0,0.711,0.017,1.064,0.038   c0.703,0.047,1.396,0.137,2.074,0.27L52.842,30.9l-1.064-1.495l-0.607,0.851l-2.531,3.556C49.461,33.648,50.307,33.551,51.17,33.52   z"/>
	<path fill="#000000" d="M61.283,60.068c0.412-0.375,0.803-0.772,1.166-1.196c1.969-2.291,3.201-5.217,3.367-8.428   c0.012-0.24,0.035-0.478,0.035-0.724c0-0.319-0.025-0.634-0.047-0.946c-0.215-3.178-1.479-6.064-3.461-8.32   c-0.367-0.419-0.76-0.816-1.176-1.188c-0.744-0.67-1.553-1.262-2.426-1.759c-0.627-0.362-1.283-0.668-1.967-0.929   c-1.24-0.473-2.559-0.776-3.934-0.88c-0.354-0.026-0.705-0.054-1.064-0.054c-0.205,0-0.404,0.022-0.607,0.031   c-1.541,0.065-3.015,0.379-4.389,0.903c-0.681,0.26-1.337,0.566-1.965,0.925c-0.778,0.445-1.512,0.962-2.189,1.545   c-0.423,0.362-0.821,0.755-1.197,1.165c-2.106,2.288-3.458,5.266-3.679,8.56c-0.02,0.312-0.047,0.627-0.047,0.946   c0,0.246,0.025,0.484,0.036,0.724c0.171,3.326,1.492,6.343,3.585,8.668c0.373,0.415,0.766,0.807,1.185,1.172   c2.337,2.056,5.35,3.342,8.66,3.48c0.203,0.011,0.402,0.035,0.607,0.035c0.359,0,0.711-0.03,1.064-0.06   C56.086,63.498,59.02,62.146,61.283,60.068z M51.777,61.527c-0.205,0-0.406-0.022-0.607-0.031   c-2.685-0.136-5.136-1.167-7.056-2.812c-0.424-0.365-0.817-0.757-1.186-1.177c-1.684-1.911-2.754-4.363-2.918-7.063   c-0.015-0.24-0.036-0.478-0.036-0.724c0-0.319,0.021-0.634,0.047-0.946c0.212-2.667,1.316-5.08,3.011-6.955   c0.374-0.415,0.77-0.808,1.198-1.165c1.901-1.587,4.311-2.573,6.939-2.709c0.201-0.009,0.402-0.03,0.607-0.03   c0.359,0,0.713,0.023,1.064,0.055c2.564,0.23,4.891,1.288,6.725,2.901c0.416,0.369,0.811,0.764,1.172,1.188   c1.574,1.838,2.59,4.163,2.797,6.716c0.023,0.312,0.049,0.627,0.049,0.946c0,0.246-0.025,0.484-0.039,0.724   c-0.156,2.586-1.141,4.952-2.701,6.825c-0.355,0.428-0.75,0.821-1.166,1.196c-1.846,1.672-4.215,2.771-6.836,3.007   C52.49,61.505,52.137,61.527,51.777,61.527z"/>
	<path fill="#000000" d="M57.793,56.577c0.416-0.369,0.803-0.772,1.146-1.213c1.092-1.374,1.785-3.069,1.934-4.92   c0.018-0.238,0.035-0.478,0.035-0.724c0-0.319-0.018-0.634-0.047-0.946c-0.188-1.819-0.912-3.481-2.016-4.825   c-0.352-0.433-0.746-0.828-1.17-1.188c-1.338-1.135-3.004-1.89-4.834-2.104c-0.352-0.042-0.703-0.067-1.064-0.067   c-0.205,0-0.406,0.018-0.607,0.029c-1.894,0.126-3.632,0.828-5.037,1.938c-0.439,0.346-0.843,0.731-1.21,1.149   c-1.217,1.387-2.028,3.134-2.228,5.068c-0.033,0.312-0.048,0.627-0.048,0.946c0,0.246,0.017,0.485,0.037,0.724   c0.152,1.967,0.93,3.754,2.134,5.175c0.36,0.426,0.758,0.819,1.191,1.172c1.425,1.168,3.212,1.901,5.162,2.033   c0.201,0.013,0.402,0.031,0.607,0.031c0.361,0,0.713-0.028,1.064-0.071C54.727,58.566,56.434,57.769,57.793,56.577z"/>
	<path fill="#000000" d="M199.028,2h-27.057C169.781,2,168,3.827,168,6.073v39.324c0,2.246,1.781,4.073,3.972,4.073h7.374v24.216   h-1.129c-0.623,0-1.129,0.518-1.129,1.158v6.755c0,0.64,0.506,1.157,1.129,1.157h1.693v3.667h-1.693   c-0.623,0-1.129,0.518-1.129,1.157v5.21c0,0.64,0.506,1.158,1.129,1.158h1.693v2.894c0,0.641,0.506,1.158,1.13,1.158h11.478   c0.624,0,1.129-0.518,1.129-1.158V73.686c0-0.639-0.505-1.157-1.129-1.157h-1.693V49.47h8.204c2.189,0,3.972-1.827,3.972-4.073   V6.073C203,3.827,201.218,2,199.028,2z M189.695,74.844h1.693v20.841h-9.22V92.79c0-0.639-0.506-1.157-1.129-1.157h-1.694v-2.896   h1.694c0.623,0,1.129-0.518,1.129-1.157v-5.981c0-0.64-0.506-1.158-1.129-1.158h-1.694v-4.438h1.129c0.624,0,1.13-0.518,1.13-1.158   V49.47h6.962v24.216C188.566,74.326,189.071,74.844,189.695,74.844z M181.604,38.295h-1.13h-1.129h-2.737   c-0.892,0-1.616-0.743-1.616-1.658c0-0.916,0.725-1.658,1.616-1.658h2.737h1.129h1.13h6.962h1.129h1.129h3.567   c0.893,0,1.616,0.742,1.616,1.658c0,0.916-0.724,1.658-1.616,1.658h-3.567h-1.129h-1.129H181.604z M179.432,31.348   c-0.893,0-1.617-0.742-1.617-1.658s0.725-1.658,1.617-1.658h12.137c0.893,0,1.616,0.742,1.616,1.658s-0.724,1.658-1.616,1.658   H179.432z M189.889,16.955h-8.776c-2.023,0-3.669-1.688-3.669-3.763c0-2.074,1.646-3.762,3.669-3.762h8.776   c2.022,0,3.669,1.688,3.669,3.762C193.558,15.267,191.911,16.955,189.889,16.955z"/>
</g>
</svg>